<svg width="32" height="30" viewBox="0 0 32 30" fill="none" xmlns="http://www.w3.org/2000/svg">
<path fill-rule="evenodd" clip-rule="evenodd" d="M25.5138 1.38369C24.7463 2.40276 23.1897 4.15443 22.1156 5.20772C20.8971 6.40257 19.537 7.55276 18.3069 8.42847L17.6166 8.91992L17.8001 9.18301C19.4043 11.4823 19.9346 13.7188 19.5446 16.5397C19.4748 17.0441 19.33 17.8163 19.2229 18.2557C19.1156 18.6951 19.0378 19.0643 19.0499 19.0762C19.0934 19.1187 19.4623 18.5556 19.6535 18.1548C20.2328 16.9404 20.5362 15.4379 20.5315 13.8073L20.5285 12.7609L22.5589 10.7577C24.7616 8.58439 25.7361 7.55334 26.2349 6.86809L26.5554 6.42793L26.5193 5.359C26.4995 4.77108 26.4371 3.95051 26.3806 3.53551C26.2707 2.72683 25.997 1.44153 25.8763 1.16738L25.8027 1L25.5138 1.38369ZM5.70736 2.66785C4.62246 2.81952 3.51163 3.3809 2.65286 4.21152C1.71544 5.11822 1.18378 6.22677 1.04671 7.5603C1.00614 7.95544 0.990729 10.4567 1.0055 14.2575C1.02598 19.5253 1.04248 20.3781 1.13082 20.7343C1.62139 22.7127 2.96437 24.2208 4.61591 24.648C4.82777 24.7027 5.16003 24.7654 5.35424 24.7871C5.54845 24.8087 5.78637 24.8413 5.88301 24.8594L6.05874 24.8924L6.07563 26.9462L6.09256 29L8.16481 26.9805L10.237 24.9611L10.8934 24.9503C11.9396 24.933 12.7769 24.6956 13.7861 24.1301C15.0886 23.4003 16.3956 22.1494 17.3061 20.7613C17.53 20.42 18.0803 19.283 18.2481 18.815C18.6007 17.8319 18.9141 15.995 18.7244 16.0243C18.6979 16.0285 15.4766 16.0285 11.5658 16.0243L4.45541 16.0169V12.9987V9.98054H10.7472C14.2077 9.98054 17.0391 9.96371 17.0391 9.94303C17.0391 9.92239 16.873 9.66068 16.67 9.36139C16.467 9.06217 16.2919 8.798 16.2808 8.77441C16.2699 8.7508 16.8765 8.21668 17.629 7.5874C18.3815 6.95816 19.6591 5.88975 20.4681 5.21313L21.9389 3.98289L21.688 3.76999C21.3234 3.46069 20.4243 2.99778 19.8319 2.8143L19.3182 2.65521L12.6091 2.64811C8.91906 2.64415 5.8133 2.65308 5.70736 2.66785ZM28.1542 5.71068C26.8984 7.64762 25.5294 9.23703 23.0325 11.6567L21.4651 13.1756L21.4026 13.8888C21.2988 15.0728 21.1583 16.024 20.9924 16.6645C20.6146 18.123 19.8499 19.5245 18.6054 21.0389C17.8602 21.9458 17.8281 22.0479 18.4566 21.5122C19.3535 20.7477 20.3594 19.5806 21.0184 18.5399C21.7428 17.3962 22.365 15.8714 22.5128 14.8777L22.5892 14.3649L22.9439 14.1078C23.2598 13.8789 24.9861 12.5071 25.1676 12.3408C25.2067 12.305 25.4523 12.092 25.7133 11.8675C27.2052 10.5846 28.5871 9.15823 28.5986 8.88963C28.6218 8.34699 28.6191 5.07661 28.5955 5.07785C28.5778 5.07879 28.3792 5.36357 28.1542 5.71068ZM30.65 7.91808C30.2012 8.51561 28.8976 10.0768 28.324 10.7037C27.0597 12.0852 25.0283 13.923 23.6427 14.9389C23.2915 15.1963 23.2778 15.2176 23.2003 15.6264C22.7369 18.0726 20.5856 20.6856 17.255 22.8474C16.7557 23.1715 16.329 23.4366 16.3066 23.4366C16.2842 23.4366 16.1581 23.505 16.0265 23.5886C15.8948 23.6722 15.426 23.9264 14.9846 24.1536C14.0925 24.6126 14.1092 24.6455 15.1451 24.4702C18.1202 23.9665 20.9236 22.7418 23.3951 20.8661C24.5117 20.0187 26.1553 18.3283 26.9083 17.2528C27.0574 17.0399 27.2072 16.8336 27.2413 16.7941C27.449 16.5538 28.5743 14.6287 29.0187 13.7533C29.9399 11.9386 30.4197 10.5931 30.7678 8.84875C31.0091 7.63986 31.0269 7.52765 30.9781 7.53081C30.9565 7.53219 30.8088 7.7065 30.65 7.91808ZM6.47649 11.4388C6.45679 11.489 6.44901 12.377 6.45923 13.412L6.47779 15.2938L6.94325 15.3123L7.40872 15.3308V14.6111V13.8915L7.97049 13.8692C8.70144 13.8402 9.0707 13.675 9.31429 13.268C9.61899 12.7587 9.53124 12.1292 9.09974 11.7295C8.80941 11.4604 8.59453 11.4127 7.52229 11.3791C6.67711 11.3526 6.5065 11.3623 6.47649 11.4388ZM10.362 13.3529V15.3418L11.3846 15.313C12.3762 15.285 12.4198 15.278 12.8222 15.084C13.5738 14.7216 13.8932 14.1935 13.8932 13.3129C13.8932 12.7897 13.7587 12.3962 13.4652 12.0604C13.0184 11.5492 12.3891 11.3652 11.0843 11.3644L10.362 11.3639V13.3529ZM14.8348 11.4058C14.8112 11.4288 14.792 12.3214 14.792 13.3892V15.3308L15.2574 15.3123L15.7229 15.2938L15.7409 14.4921L15.7589 13.6904H16.3669H16.9749V13.3446V12.9987H16.3649H15.755V12.5586V12.1184H16.5576H17.3601V11.7411V11.3639H16.1188C15.4361 11.3639 14.8583 11.3828 14.8348 11.4058ZM7.40872 12.6458V13.1874H7.72017C7.89145 13.1874 8.11859 13.1577 8.22493 13.1213C8.55227 13.0096 8.66869 12.5729 8.44366 12.3008C8.34261 12.1785 8.24886 12.1508 7.86585 12.1296L7.40872 12.1042V12.6458ZM11.2609 13.3446V14.5078H11.6305C12.5228 14.5078 12.9514 14.1303 12.9533 13.3427C12.9551 12.5775 12.5242 12.1813 11.69 12.1813H11.2609V13.3446Z" fill="#EDB01A"/>
<path fill-rule="evenodd" clip-rule="evenodd" d="M21.509 13.1471L22.5873 14.4626L22.5251 14.8799C22.3773 15.8736 21.7551 17.3984 21.0308 18.5421C20.3718 19.5828 19.3658 20.7499 18.4689 21.5144C17.8405 22.0501 17.8725 21.948 18.6177 21.0411C19.8622 19.5267 20.6269 18.1252 21.0047 16.6667C21.1706 16.0261 21.3112 15.075 21.4149 13.891L21.4774 13.1778L21.509 13.1471ZM17.8921 8.73474L20.9021 12.4067L20.5409 12.7631L20.5439 13.8095C20.5486 15.44 20.2451 16.9426 19.6658 18.157C19.4746 18.5577 19.1057 19.1209 19.0622 19.0784C19.0502 19.0665 19.1279 18.6973 19.2352 18.2579C19.3424 17.8185 19.4872 17.0463 19.5569 16.5419C19.9469 13.7209 19.4166 11.4845 17.8124 9.1852L17.6289 8.92212L17.8921 8.73474Z" fill="#EDB01A"/>
</svg>
