<svg width="116" height="26" viewBox="0 0 116 26" fill="none" xmlns="http://www.w3.org/2000/svg">
<path d="M49.2874 10.5378C48.7206 10.8816 48.2715 11.3564 47.9402 11.9615C47.6088 12.5665 47.4435 13.2315 47.4435 13.9574C47.4435 14.6966 47.6127 15.3686 47.9503 15.9737C48.2871 16.5787 48.7362 17.0558 49.2968 17.4067C49.8574 17.7568 50.4687 17.9314 51.1314 17.9314C51.7933 17.9314 52.4015 17.7568 52.9558 17.4067C53.5102 17.0558 53.946 16.5787 54.2649 15.9737C54.583 15.3686 54.742 14.6966 54.742 13.9574C54.742 13.2315 54.583 12.5665 54.2649 11.9615C53.946 11.3564 53.5102 10.8816 52.9558 10.5378C52.4015 10.1939 51.7933 10.0216 51.1314 10.0216C50.4687 10.0216 49.8543 10.1939 49.2874 10.5378ZM54.7896 7.95861C55.8913 8.5574 56.7575 9.37918 57.3883 10.4232C58.019 11.4679 58.334 12.6398 58.334 13.9387C58.334 15.2509 58.019 16.4352 57.3883 17.4925C56.7575 18.5497 55.8913 19.3839 54.7896 19.9952C53.6879 20.6065 52.456 20.9121 51.0932 20.9121C49.7295 20.9121 48.4976 20.6096 47.396 20.0046C46.2943 19.3995 45.4281 18.5653 44.7973 17.5018C44.1673 16.4383 43.8516 15.2509 43.8516 13.9387C43.8516 12.6398 44.1673 11.4679 44.7973 10.4232C45.4281 9.37918 46.2943 8.5574 47.396 7.95861C48.4976 7.35982 49.7295 7.06043 51.0932 7.06043C52.456 7.06043 53.6879 7.35982 54.7896 7.95861Z" fill="white"/>
<path d="M63.378 17.1089C63.8825 17.6266 64.5226 17.8854 65.2991 17.8854C66.0624 17.8854 66.6799 17.6297 67.1524 17.119C67.6241 16.6075 67.8604 15.9191 67.8604 15.0521V7.05653H71.4118V15.0521C71.4118 16.2294 71.1623 17.2609 70.6648 18.1474C70.1666 19.0331 69.4548 19.7161 68.5301 20.194C67.6054 20.6727 66.5217 20.9121 65.2796 20.9121C64.0376 20.9121 62.9476 20.6727 62.0097 20.194C61.0717 19.7161 60.3474 19.0331 59.8367 18.1474C59.3253 17.2609 59.0703 16.2294 59.0703 15.0521V7.05653H62.6209V15.0521C62.6209 15.9058 62.8736 16.5919 63.378 17.1089Z" fill="white"/>
<path d="M85.7734 7.02852H97.2557V9.91331H93.2443V20.9395H89.7474V9.91331H85.7734V7.02852Z" fill="white"/>
<path d="M111.35 13.398C111.738 13.0417 111.932 12.5256 111.932 11.8504C111.932 11.2009 111.738 10.7012 111.35 10.3511C110.961 10.0002 110.41 9.82558 109.697 9.82558H107.481V13.9329H109.697C110.41 13.9329 110.961 13.7551 111.35 13.398ZM113.843 8.2678C114.786 9.08957 115.257 10.2458 115.257 11.7358C115.257 13.3154 114.786 14.541 113.843 15.4135C112.901 16.286 111.576 16.7226 109.869 16.7226H107.481V20.9336H103.984V7.03591H109.869C111.576 7.03591 112.901 7.4468 113.843 8.2678Z" fill="white"/>
<path d="M103.612 20.9258H100.049L97.3906 7.04681H100.897L103.612 20.9258Z" fill="white"/>
<path d="M81.6238 7.05265H84.9865V20.9199H81.8218L75.5307 12.6312V20.9199H72.1484V7.05265H75.3334L81.6433 15.4006L81.6238 7.05265Z" fill="white"/>
<path d="M39.1377 17.7186C38.7681 17.9829 38.266 18.1147 37.6321 18.1147H34.8588V15.2026H37.6321C38.266 15.1901 38.7681 15.3117 39.1377 15.569C39.5072 15.8271 39.692 16.1733 39.692 16.6091C39.692 17.0847 39.5072 17.4543 39.1377 17.7186ZM42.6735 14.7675C42.1652 14.1337 41.4681 13.7306 40.584 13.559C41.3231 13.361 41.9071 12.9914 42.3367 12.4496C42.7655 11.9085 42.9807 11.2746 42.9807 10.5479C42.9807 9.83532 42.7694 9.2147 42.3468 8.68608C41.9235 8.15824 41.3262 7.75203 40.5536 7.46823C39.7817 7.18443 38.8734 7.04175 37.8302 7.04175H31.2341V9.87352H35.2066V9.8743H37.6321C38.1342 9.86183 38.5303 9.97098 38.8211 10.2018C39.1112 10.4325 39.257 10.7592 39.257 11.1818C39.257 11.6177 39.1112 11.9576 38.8211 12.2024C38.5303 12.4464 38.1342 12.5689 37.6321 12.5689H35.2066H34.8588H31.2341V20.9277H38.0882C39.1704 20.9277 40.1146 20.7726 40.9208 20.4623C41.7254 20.152 42.3468 19.7029 42.7827 19.115C43.2185 18.5279 43.436 17.8441 43.436 17.0652C43.436 16.167 43.1818 15.4014 42.6735 14.7675Z" fill="white"/>
<path d="M20.6543 26H5.34622C2.3936 26 0 23.6064 0 20.6538V5.34567C0 2.39382 2.3936 0.000225067 5.34622 0.000225067H20.6543C23.607 0.000225067 26.0006 2.39382 26.0006 5.34567V20.6538C26.0006 23.6064 23.607 26 20.6543 26Z" fill="#15BA5C"/>
<path d="M11.9974 22.002H17.3818C20.2549 22.002 22.1425 19.001 20.8973 16.4109L19.3294 13.148C19.285 13.0544 19.285 12.946 19.3294 12.8525L20.8973 9.59033C22.1425 7.00025 20.2549 3.99851 17.3818 3.99851H11.9974C11.4898 3.99851 11.0781 4.41018 11.0781 4.91775V21.0827C11.0781 21.5903 11.4898 22.002 11.9974 22.002Z" fill="white"/>
<path d="M8.6982 6.12791V19.9164C8.6982 20.9916 7.82653 21.8633 6.75214 21.8633C5.62941 21.8633 4.71875 20.9534 4.71875 19.8307V6.12791C4.71875 5.02935 5.60992 4.13818 6.70848 4.13818C7.80782 4.13818 8.6982 5.02935 8.6982 6.12791Z" fill="white"/>
</svg>
